<svg width="26" height="21" viewBox="0 0 26 21" fill="none" xmlns="http://www.w3.org/2000/svg">
<path d="M21.0728 6.74824L21.2193 6.89469H21.4264H25.493V7.67362C25.493 12.3418 21.7086 16.1262 17.0404 16.1262H16.2615V12.0596V11.8525L16.1151 11.706L14.2258 9.8168L13.8723 9.46324L13.5187 9.8168L3.60057 19.735C3.44842 19.8871 3.24998 19.963 3.04967 19.963C2.84937 19.963 2.65092 19.8871 2.49878 19.735L1.14231 18.3785C0.837982 18.0742 0.837982 17.581 1.1423 17.2767L11.0605 7.35853L11.414 7.00498L11.0605 6.65143L10.0949 5.68583L10.0947 5.68569C9.79067 5.38187 9.79047 4.88884 10.0949 4.58444L13.9513 0.728043C14.1034 0.575895 14.3019 0.5 14.5022 0.5C14.7025 0.5 14.9009 0.575895 15.0531 0.728043L16.0182 1.69357L16.3717 2.04727L16.7254 1.69364L17.691 0.728042C17.8431 0.575896 18.0415 0.5 18.2418 0.5C18.4422 0.5 18.6406 0.575895 18.7927 0.728042L20.1492 2.08451C20.4535 2.38884 20.4535 2.88198 20.1492 3.18631L19.1836 4.1519L18.8301 4.50546L19.1836 4.85901L21.0728 6.74824ZM18.2407 0.778937H18.0335L17.8871 0.925384L16.9223 1.89018L16.5688 2.24368L16.9222 2.59724L18.2791 3.95451L18.6327 4.30817L18.9863 3.95456L19.9519 2.98896L20.3054 2.63541L19.9519 2.28186L18.5954 0.925384L18.449 0.778937H18.2418H18.2407ZM2.69612 19.5376L3.04967 19.8912L3.40323 19.5376L13.3214 9.61945L13.6749 9.2659L13.3214 8.91235L11.9649 7.55587L11.6114 7.20232L11.2578 7.55587L1.33965 17.474L0.986093 17.8276L1.33965 18.1811L2.69612 19.5376ZM16.5404 15.3472V15.8472H17.0404C21.5479 15.8472 25.2141 12.1811 25.2141 7.67362V7.17362H24.7141H21.104L14.8557 0.925384L14.7093 0.778937H14.5022H14.501H14.2938L14.1473 0.925439L10.2922 4.78184L9.93871 5.13539L10.2922 5.48889L16.5404 11.7371V15.3472Z" fill="#00F0B5" stroke="#CF4646"/>
</svg>
