<svg width="27" height="29" viewBox="0 0 27 29" fill="none" xmlns="http://www.w3.org/2000/svg">
<path d="M15.9334 17.8618C15.6319 19.116 15.6386 20.8033 15.8606 22.4772C16.0832 24.1565 16.5299 25.8777 17.1474 27.2068L17.2818 27.4961H17.6008H23.8H24.1197L24.2538 27.206C24.8682 25.8772 25.3134 24.1577 25.5361 22.4793C25.758 20.8062 25.7661 19.1195 25.4678 17.8632L25.4676 17.8625C25.1704 16.6178 24.607 15.5398 24.0633 14.4996C24.025 14.4264 23.9868 14.3533 23.9488 14.2803C23.364 13.1577 22.8123 12.0468 22.5407 10.6965L22.4599 10.2951H22.0505H19.3503H18.9409L18.8602 10.6965C18.5885 12.0468 18.0368 13.1577 17.452 14.2803C17.414 14.3533 17.3758 14.4264 17.3375 14.4996C16.794 15.5396 16.2307 16.6174 15.9334 17.8618ZM15.9334 17.8618L16.4194 17.9787L15.9332 17.8625C15.9333 17.8623 15.9333 17.862 15.9334 17.8618ZM0.755546 17.6836L0.755389 17.6843C0.423909 19.0712 0.423027 20.9707 0.706794 22.8976C0.990165 24.8219 1.54916 26.7177 2.29523 28.0971L2.29618 28.0989L2.40795 28.3075H10.191L10.3028 28.0989L10.3037 28.0971C11.0498 26.7176 11.6088 24.8233 11.8922 22.8997C12.1759 20.9736 12.1751 19.0739 11.8435 17.684L11.8434 17.6836C11.5222 16.3315 10.9299 15.2029 10.3315 14.0627C10.2862 13.9765 10.2409 13.8901 10.1957 13.8036C9.56229 12.5922 8.93975 11.3391 8.80005 9.8636C8.69908 8.80196 9.01243 7.9186 9.30146 7.10381C9.31286 7.07166 9.32423 7.03962 9.33553 7.00768C9.63777 6.15342 9.91442 5.3268 9.85064 4.25455L0.755546 17.6836ZM0.755546 17.6836C1.07654 16.3324 1.66827 15.2056 2.26632 14.0668C2.31197 13.9799 2.35764 13.893 2.40324 13.8058C3.03676 12.5949 3.6593 11.3417 3.79894 9.86329M0.755546 17.6836L3.79894 9.86329M6.29883 0.505625C8.19055 0.510801 9.71736 2.03121 9.85063 4.25436L6.29883 0.505625ZM6.29883 0.505625C4.41009 0.505974 2.88683 2.02915 2.74826 4.25554L6.29883 0.505625ZM3.79894 9.86329C3.89971 8.80292 3.58582 7.92026 3.29655 7.10684M3.79894 9.86329L3.29655 7.10684M3.29655 7.10684C3.28472 7.07356 3.27292 7.04039 3.2612 7.00734M3.29655 7.10684L3.2612 7.00734M3.2612 7.00734C2.95835 6.15335 2.68195 5.32724 2.74825 4.2557L3.2612 7.00734ZM26.2445 17.6786L26.2445 17.6786C26.576 19.0656 26.5769 20.9637 26.2938 22.8893C26.0111 24.8122 25.4535 26.7068 24.7099 28.0865L24.7093 28.0876L24.5976 28.2963H16.8145L16.7027 28.0876L16.7018 28.0859C15.9557 26.7064 15.3967 24.812 15.1134 22.8892C14.8296 20.9636 14.8305 19.0655 15.162 17.6786L15.1621 17.678C15.4833 16.3259 16.0756 15.1973 16.674 14.0571C16.7193 13.9708 16.7646 13.8845 16.8099 13.798C17.4433 12.5866 18.0658 11.3334 18.2055 9.85775C18.3063 8.79948 17.9934 7.91653 17.7046 7.10194C17.693 7.06928 17.6815 7.03673 17.67 7.00428C17.3678 6.14935 17.0911 5.32128 17.1549 4.24899C17.2881 2.03014 18.8102 0.505521 20.7004 0.500002C22.5915 0.505524 24.1184 2.03108 24.2516 4.24899C24.3153 5.32085 24.0375 6.14715 23.7345 7.00171C23.7235 7.03254 23.7126 7.06346 23.7015 7.09448C23.4115 7.91025 23.097 8.79495 23.201 9.85858C23.3408 11.3337 23.9618 12.5851 24.5944 13.7957C24.6402 13.8833 24.6861 13.9707 24.7319 14.0581C25.3291 15.1966 25.921 16.3248 26.2445 17.6786ZM23.4497 4.29624L23.4497 4.29601C23.3347 2.37725 22.0738 1.29027 20.7004 1.29027C19.3273 1.29027 18.0664 2.37699 17.9512 4.29531C17.8937 5.21449 18.1551 5.99304 18.412 6.72011C18.4263 6.76065 18.4406 6.80109 18.4549 6.84144C18.7018 7.53797 18.9402 8.21065 19.0037 9.03882L19.0391 9.50059H19.5022H21.8986H22.3616L22.3972 9.03894C22.4608 8.2116 22.6989 7.53657 22.9454 6.8376C22.9592 6.7983 22.9731 6.75891 22.987 6.71942C23.243 5.99132 23.5041 5.21185 23.4497 4.29624ZM9.04875 4.30197L9.04873 4.30164C8.9338 2.38288 7.67281 1.2959 6.29948 1.2959C4.92631 1.2959 3.66547 2.38261 3.55027 4.30094C3.49277 5.22024 3.75425 5.99744 4.01114 6.72321C4.02541 6.76352 4.03968 6.80372 4.05393 6.84383C4.3008 7.53913 4.53922 8.2106 4.60274 9.03882L4.63816 9.50059H5.10128H7.49768H7.9608L7.99622 9.03882C8.05989 8.2086 8.29811 7.53571 8.54467 6.83922C8.55838 6.8005 8.57212 6.7617 8.58585 6.7228C8.84203 5.99707 9.10316 5.22048 9.04875 4.30197ZM9.39906 27.5018H9.71809L9.85251 27.2124C10.47 25.8833 10.9167 24.1621 11.1393 22.4828C11.3613 20.8091 11.368 19.1219 11.0666 17.8678C10.7693 16.6233 10.206 15.5454 9.66236 14.5053C9.62407 14.432 9.58587 14.3589 9.54786 14.286C8.96305 13.1634 8.41141 12.0524 8.13975 10.7021L8.05899 10.3007H7.64957H4.94939H4.53917L4.45903 10.703C4.19015 12.0527 3.63877 13.1633 3.05332 14.2857C3.01448 14.3602 2.97543 14.4348 2.93628 14.5096C2.39281 15.5481 1.8293 16.6248 1.53238 17.8676C1.23094 19.1218 1.2377 20.809 1.45963 22.4828C1.68229 24.1621 2.12894 25.8833 2.74645 27.2124L2.88087 27.5018H3.1999H9.39906Z" fill="#00F0B5" stroke="#CF4646"/>
</svg>
