<svg width="27" height="26" viewBox="0 0 27 26" fill="none" xmlns="http://www.w3.org/2000/svg">
<path d="M24.8191 11.2763L24.7135 11.6047L24.9831 11.82C25.9328 12.5786 26.5 13.7278 26.5 14.9393C26.5 16.3837 25.7325 17.6914 24.5028 18.4044L24.2399 18.5569L24.2542 18.8605C24.3534 20.9665 22.6498 22.7314 20.5507 22.6775L20.2384 22.6695L20.0943 22.9466C19.4723 24.1425 18.2348 24.9118 16.8626 24.9118C15.6474 24.9118 14.5725 24.3114 13.9044 23.3925L13.5 22.8363L13.0956 23.3925C12.4275 24.3114 11.3526 24.9118 10.1374 24.9118C8.76524 24.9118 7.5277 24.1425 6.90572 22.9466L6.76158 22.6695L6.44929 22.6775C4.35009 22.7314 2.64613 20.9669 2.7458 18.8606L2.76017 18.5569L2.49718 18.4044C1.26754 17.6914 0.5 16.3837 0.5 14.9393C0.5 13.7278 1.06722 12.5785 2.0165 11.8199L2.2859 11.6047L2.1804 11.2764C1.79364 10.0728 2.0144 9.05854 2.44596 8.2683C2.88556 7.46334 3.54315 6.89588 3.99301 6.63515L4.2631 6.4786L4.24103 6.1672C4.12724 4.56221 5.35231 2.97716 7.11339 2.75843L7.39584 2.72335L7.50988 2.46257C8.02492 1.28479 9.19464 0.5 10.5111 0.5C11.5657 0.5 12.4993 1.00737 13.1045 1.7899L13.5 2.30129L13.8955 1.7899C14.5007 1.00737 15.4343 0.5 16.4889 0.5C17.8054 0.5 18.975 1.2848 19.4896 2.46243L19.6036 2.72334L19.8861 2.75843C21.6472 2.97716 22.8723 4.56221 22.7585 6.1672L22.7364 6.47872L23.0066 6.63524C23.4564 6.89569 24.1141 7.4631 24.5537 8.26813C24.9853 9.05841 25.2061 10.0727 24.8191 11.2763ZM13.2029 10.197V9.1409L12.386 9.81021C11.9327 10.1816 11.3979 10.4544 10.8116 10.5935V9.99599C12.1853 9.60701 13.2029 8.35428 13.2029 6.85274V3.77206C13.2029 2.2895 11.9935 1.08824 10.5111 1.08824C9.6028 1.08824 8.96306 1.4317 8.52412 1.9754C8.20028 2.37653 8.00303 2.86648 7.86144 3.33689L7.61825 3.33173L7.61825 3.33162H7.60765H7.5873C6.03863 3.33162 4.83002 4.51944 4.83002 6.00551C4.83002 6.27571 4.88365 6.53851 4.9554 6.84445C4.39562 7.09981 3.86058 7.4138 3.44133 7.85052C2.90604 8.40812 2.58812 9.1351 2.58812 10.1002C2.58812 10.3601 2.59015 10.5872 2.69298 10.9246C2.76423 11.1584 2.8829 11.4427 3.07208 11.844C2.6838 12.077 2.26641 12.3597 1.92073 12.7343C1.43048 13.2655 1.09369 13.9677 1.09369 14.9393C1.09369 15.9433 1.43305 16.679 1.97625 17.2297C2.39668 17.656 2.92263 17.9537 3.44579 18.1916C3.37019 18.5578 3.33559 18.7492 3.33559 19.034C3.33559 20.7208 4.71157 22.0901 6.40108 22.0901C6.59687 22.0901 6.7391 22.0679 7.17253 21.9942C7.37745 22.5279 7.64042 23.0476 8.02594 23.46C8.53023 23.9995 9.21314 24.3235 10.1374 24.3235C11.8269 24.3235 13.2029 22.9543 13.2029 21.2675V10.197ZM14.614 9.81021L13.7971 9.1409V10.197V21.2675C13.7971 22.9543 15.1731 24.3235 16.8626 24.3235C17.7869 24.3235 18.4698 23.9995 18.9741 23.46C19.3596 23.0475 19.6226 22.5279 19.8275 21.9942C20.2613 22.0679 20.4035 22.0901 20.5989 22.0901C22.2884 22.0901 23.6644 20.7208 23.6644 19.034C23.6644 18.7492 23.6298 18.5578 23.5542 18.1917C24.0774 17.954 24.6032 17.6563 25.0236 17.23C25.5667 16.6793 25.9058 15.9435 25.9058 14.9393C25.9058 13.9677 25.569 13.2655 25.0788 12.7343C24.7331 12.3597 24.3157 12.077 23.9274 11.844C24.1166 11.4427 24.2353 11.1584 24.3065 10.9246C24.4094 10.5872 24.4114 10.3601 24.4114 10.1002C24.4114 9.13505 24.0933 8.40796 23.558 7.85033C23.1387 7.41357 22.6037 7.09957 22.044 6.84433C22.1156 6.53874 22.1695 6.2755 22.1695 6.00551C22.1695 4.51944 20.9609 3.33162 19.4122 3.33162H19.3919V3.3315L19.3813 3.33173L19.1382 3.33688C18.9968 2.86648 18.7996 2.37655 18.4758 1.97543C18.037 1.43169 17.3972 1.08824 16.4889 1.08824C15.0065 1.08824 13.7971 2.2895 13.7971 3.77206V6.85274C13.7971 8.35428 14.8147 9.60701 16.1884 9.99599V10.5935C15.6021 10.4544 15.0673 10.1816 14.614 9.81021Z" fill="#F61067" stroke="#CF4646"/>
</svg>
