<svg width="27" height="22" viewBox="0 0 27 22" fill="none" xmlns="http://www.w3.org/2000/svg">
<path d="M26.3387 10.6874L26.3433 10.6949L26.3482 10.7022C26.4606 10.8701 26.5112 11.052 26.4979 11.2109L26.4979 11.2111C26.2886 13.7235 24.1764 15.6999 21.6 15.6999C19.0236 15.6999 16.9113 13.7235 16.7021 11.2111L16.702 11.2109C16.6887 11.052 16.7393 10.8702 16.8517 10.7022L16.8566 10.6949L16.8612 10.6874L21.4558 3.27339C21.4906 3.22469 21.5426 3.19999 21.6 3.19999C21.6573 3.19999 21.7093 3.22469 21.7441 3.27339L26.3387 10.6874ZM17.7702 11.6499H17.0596L17.2996 12.3188C17.9262 14.065 19.6265 15.3499 21.6 15.3499C23.5614 15.3499 25.2504 14.0796 25.8849 12.3195L26.1263 11.6499H25.4145H17.7702ZM17.3667 10.5366L16.8937 11.3H17.7917H25.4382H26.3395L25.8624 10.5353L22.0259 4.38607L21.6002 3.70377L21.1766 4.38739L17.3667 10.5366ZM13.675 20.2499V20.7499H14.175H22.4504V21.0999H13.3254V5.30421V4.9172L12.9508 4.82018C12.6548 4.74354 12.3858 4.60741 12.1506 4.42256L11.9386 4.25599L11.683 4.34152L5.06829 6.55452L4.95725 6.22292L11.1502 4.15079L11.6526 3.98268L11.4557 3.49082C11.3563 3.24239 11.3 2.97749 11.3 2.69999C11.3 1.48481 12.2848 0.5 13.5 0.5C14.5033 0.5 15.3451 1.17821 15.6065 2.10686L15.7486 2.61211L16.2464 2.44558L21.9317 0.543497L22.0428 0.875095L15.9409 2.91686L15.6856 3.00231L15.6164 3.26255C15.4133 4.02648 14.8148 4.62254 14.0497 4.82059L13.675 4.91758V5.30463V20.2499ZM22.0861 0.491833C22.086 0.491868 22.0859 0.491903 22.0858 0.491938L22.086 0.491885L22.0861 0.491833ZM21.8803 0.389933C21.8802 0.389694 21.8801 0.389455 21.88 0.389215L21.8802 0.389536L21.8803 0.389933ZM22.0945 1.02954C22.0944 1.02936 22.0944 1.02918 22.0943 1.029L22.0945 1.02952L22.0945 1.02954ZM4.64446 5.80033C4.4677 5.8594 4.37235 6.05093 4.43142 6.22727L4.64573 6.86725C4.70479 7.04402 4.89632 7.13936 5.07266 7.0803L4.64446 5.80033ZM0.651781 16.1022L0.656679 16.0949L0.661316 16.0874L5.25587 8.67335C5.29066 8.62466 5.34267 8.59996 5.40004 8.59996C5.45797 8.59996 5.50957 8.62468 5.54404 8.67309L10.1388 16.0874L10.1434 16.0949L10.1483 16.1022C10.2607 16.2701 10.3113 16.4519 10.298 16.6108L10.2979 16.6111C10.0887 19.1234 7.97644 21.0999 5.40004 21.0999C2.82363 21.0999 0.711398 19.1234 0.502132 16.6111L0.50211 16.6108C0.488792 16.4519 0.539356 16.2701 0.651781 16.1022ZM1.57027 17.0499H0.859643L1.09965 17.7188C1.72624 19.465 3.42659 20.7499 5.40004 20.7499C7.36146 20.7499 9.05052 19.4796 9.68499 17.7195L9.92634 17.0499H9.21461H1.57027ZM1.16676 15.9366L0.693805 16.6999H1.59179H9.23824H10.1395L9.66245 15.9353L5.82593 9.78604L5.40025 9.10375L4.97669 9.78736L1.16676 15.9366ZM13.5 0.849994C12.4797 0.849994 11.65 1.67966 11.65 2.69999C11.65 3.72031 12.4797 4.54998 13.5 4.54998C14.5203 4.54998 15.35 3.72031 15.35 2.69999C15.35 1.67966 14.5203 0.849994 13.5 0.849994Z" fill="#F67110" stroke="#CF4646"/>
</svg>
