<svg width="158" height="31" viewBox="0 0 158 31" fill="none" xmlns="http://www.w3.org/2000/svg">
<path fill-rule="evenodd" clip-rule="evenodd" d="M6.40328 21.2926C6.40328 21.6753 6.46671 22.1251 6.61274 22.635C6.75397 23.1484 7.04243 23.6348 7.45058 24.0928C7.8683 24.5556 8.45839 24.9466 9.24835 25.2645C10.0204 25.5836 11.0509 25.7403 12.3268 25.7403C13.0306 25.7403 13.7188 25.6861 14.4083 25.5907C15.1001 25.4883 15.7201 25.3081 16.291 25.0526C16.844 24.7982 17.2952 24.4402 17.6423 23.9774C17.9954 23.5158 18.1702 22.9176 18.1702 22.1722C18.1702 21.6388 18.0529 21.1925 17.8087 20.8322C17.5454 20.4683 17.2067 20.1739 16.7542 19.9301C16.291 19.6899 15.756 19.4756 15.1348 19.299C14.5076 19.1223 13.8337 18.941 13.1 18.7585L10.0946 18.0719C8.96349 17.8152 7.85155 17.5373 6.78629 17.2264C5.72223 16.9226 4.77906 16.4763 3.96036 15.9064C3.13928 15.3317 2.48217 14.571 1.97228 13.6349C1.46598 12.7128 1.20984 11.4834 1.20984 9.9785C1.20984 9.46743 1.27567 8.89749 1.3834 8.28869C1.50428 7.67517 1.70178 7.05695 1.99023 6.42695C2.2763 5.80048 2.67487 5.18697 3.17877 4.59112C3.69225 3.99056 4.34098 3.46772 5.1501 3.01082C5.95563 2.57159 6.91316 2.20301 8.03468 1.92392C9.1538 1.64249 10.4656 1.5 11.9737 1.5C14.0959 1.5 15.8697 1.80852 17.2785 2.42086C18.6849 3.03555 19.7944 3.79391 20.6322 4.6865C21.4653 5.58146 22.0446 6.54353 22.3857 7.58332C22.7149 8.61487 22.886 9.55929 22.886 10.4001H17.2785C17.2222 10.0974 17.1349 9.70295 17.0199 9.22721C16.9062 8.75736 16.6513 8.304 16.2611 7.86947C15.8697 7.43142 15.2988 7.05695 14.5722 6.73901C13.829 6.41988 12.8164 6.2562 11.5428 6.2562C10.9982 6.2562 10.4309 6.31744 9.8504 6.42695C9.26152 6.54353 8.74205 6.73547 8.26448 6.9863C7.79888 7.24065 7.41228 7.58332 7.12621 8.00372C6.81501 8.42764 6.67258 8.94106 6.67258 9.55928C6.67258 10.0974 6.76235 10.5367 6.96104 10.8782C7.15255 11.2244 7.41108 11.5011 7.70193 11.706C8.00954 11.9097 8.32672 12.0616 8.67982 12.1652C9.02812 12.2642 9.35368 12.356 9.63256 12.4337L16.4574 14.0847C17.4125 14.312 18.339 14.5934 19.2271 14.9255C20.1092 15.2599 20.8896 15.705 21.5611 16.2679C22.2445 16.832 22.7819 17.5373 23.1745 18.3805C23.5898 19.2177 23.7861 20.2575 23.7861 21.4834C23.7861 22.8694 23.5719 24.0516 23.147 25.0325C22.7101 26.0158 22.1631 26.8436 21.4653 27.5066C20.7771 28.1731 20.0194 28.703 19.1816 29.0975C18.3557 29.5014 17.525 29.7958 16.7099 30.0019C15.8901 30.2068 15.1348 30.3363 14.4238 30.4046C13.7236 30.4635 13.1766 30.5 12.7493 30.5C10.2047 30.5 8.14719 30.1809 6.57683 29.5426C5.00049 28.8973 3.77963 28.1213 2.92263 27.1804C2.07282 26.2513 1.4983 25.2445 1.20984 24.1729C0.927369 23.0931 0.786133 22.1345 0.786133 21.2926H6.40328Z" fill="#231F20"/>
<path fill-rule="evenodd" clip-rule="evenodd" d="M51.7861 20.1081C51.7861 21.9341 51.5225 23.4967 51.0011 24.8042C50.4877 26.1128 49.7429 27.193 48.7645 28.0343C47.7952 28.8803 46.613 29.5049 45.2317 29.9011C43.8504 30.2949 42.2975 30.5 40.5755 30.5C39.9458 30.5 39.254 30.4511 38.5035 30.3625C37.7564 30.2716 36.999 30.0933 36.2312 29.8463C35.4507 29.5853 34.683 29.238 33.9474 28.8174C33.1969 28.399 32.5223 27.8467 31.9145 27.1487C31.1824 26.3015 30.6472 25.3204 30.3329 24.2087C30.0175 23.0924 29.831 21.8386 29.7861 20.4566V1.5H35.6027V20.0767C35.6027 21.0462 35.727 21.8805 35.9768 22.5715C36.2312 23.2625 36.58 23.8358 37.0243 24.2833C37.464 24.7308 37.982 25.0629 38.5795 25.2843C39.178 25.4975 39.7973 25.6117 40.465 25.6117C42.4334 25.6117 43.8504 25.1549 44.6965 24.2414C45.5494 23.3289 45.9776 22.0355 45.9776 20.3435V1.5H51.7861V20.1081Z" fill="#231F20"/>
<path fill-rule="evenodd" clip-rule="evenodd" d="M65.9545 30.5H59.7861V1.5H80.7861V6.54881H65.9545V13.5229H78.9367V18.4386H65.9545V30.5Z" fill="#231F20"/>
<path fill-rule="evenodd" clip-rule="evenodd" d="M92.9545 30.5H86.7861V1.5H107.786V6.54881H92.9545V13.5229H105.938V18.4386H92.9545V30.5Z" fill="#231F20"/>
<path fill-rule="evenodd" clip-rule="evenodd" d="M116.288 30.5H109.786L116.278 1.5H122.786L116.288 30.5Z" fill="#231F20"/>
<path fill-rule="evenodd" clip-rule="evenodd" d="M126.972 0.5H141.368V1.6265H135.617L142.336 13.0729L150.295 1.6265H145.198V0.5H156.123V1.6265H151.834L143.16 14.2678L152.961 29.3747H157.786V30.5H143.033V29.3747H147.684L140.595 18.0544L132.608 29.3747H137.937V30.5H126.786V29.3747H131.034L139.738 16.8967L130.403 1.6265H126.972V0.5Z" fill="#231F20"/>
</svg>
